<svg width="18" height="18" viewBox="0 0 18 18" fill="none" xmlns="http://www.w3.org/2000/svg">
<circle cx="9" cy="9" r="9" fill="#ECECEC"/>
<path d="M13.6573 13.6568C13.4422 13.8729 13.1504 13.9943 12.8461 13.9943C12.5419 13.9943 12.2501 13.8729 12.0349 13.6568L9.50048 10.7469L6.96601 13.6558C6.8598 13.7642 6.73326 13.8505 6.5937 13.9096C6.45414 13.9686 6.30432 13.9994 6.15288 14C6.00143 14.0006 5.85137 13.9711 5.71133 13.9132C5.5713 13.8552 5.44407 13.77 5.33698 13.6625C5.22989 13.5549 5.14506 13.4271 5.08739 13.2864C5.02972 13.1458 5.00035 12.995 5.00097 12.8429C5.00158 12.6908 5.03218 12.5403 5.09099 12.4001C5.1498 12.2599 5.23565 12.1328 5.34361 12.0261L7.98037 9.00096L5.34266 5.97392C5.2347 5.86723 5.14884 5.74012 5.09003 5.59993C5.03122 5.45974 5.00063 5.30925 5.00001 5.15712C4.99939 5.00499 5.02877 4.85425 5.08644 4.71358C5.14411 4.57291 5.22893 4.44511 5.33602 4.33754C5.44311 4.22997 5.57034 4.14476 5.71038 4.08683C5.85041 4.0289 6.00048 3.99939 6.15192 4.00001C6.30336 4.00063 6.45319 4.03136 6.59275 4.09044C6.73231 4.14951 6.85884 4.23576 6.96506 4.3442L9.50048 7.25504L12.0349 4.3442C12.1412 4.23576 12.2677 4.14951 12.4073 4.09044C12.5468 4.03136 12.6966 4.00063 12.8481 4.00001C12.9995 3.99939 13.1496 4.0289 13.2896 4.08683C13.4297 4.14476 13.5569 4.22997 13.664 4.33754C13.7711 4.44511 13.8559 4.57291 13.9136 4.71358C13.9712 4.85425 14.0006 5.00499 14 5.15712C13.9994 5.30925 13.9688 5.45974 13.91 5.59993C13.8512 5.74012 13.7653 5.86723 13.6573 5.97392L11.0206 9.00096L13.6573 12.0261C13.764 12.1331 13.8486 12.2602 13.9064 12.4001C13.9641 12.54 13.9938 12.69 13.9938 12.8414C13.9938 12.9929 13.9641 13.1428 13.9064 13.2827C13.8486 13.4226 13.764 13.5497 13.6573 13.6568V13.6568Z" fill="black"/>
</svg>
