<svg width="41" height="42" viewBox="0 0 41 42" fill="none" xmlns="http://www.w3.org/2000/svg">
<rect x="0.869492" y="0.869507" width="38.6921" height="39.1269" rx="19.3461" fill="white"/>
<path d="M11.7958 0H29.2042C32.4435 0 35.3908 1.32929 37.5291 3.46422C39.6707 5.60251 41 8.55314 41 11.7958V29.456C41 32.6919 39.6707 35.6392 37.5358 37.7775L37.5291 37.7842C35.3874 39.9225 32.4402 41.2484 29.2075 41.2484H11.7958C8.55314 41.2484 5.60251 39.9191 3.46422 37.7842L3.38366 37.6936C1.29573 35.5653 0 32.6516 0 29.4526V11.7958C0 8.54978 1.32594 5.60251 3.46422 3.46422C5.60251 1.32594 8.54978 0 11.7958 0ZM30.7181 10.4128L30.7416 10.4497H37.9923C37.7003 8.54307 36.7906 6.8311 35.4814 5.51859C33.8701 3.90732 31.6479 2.90699 29.2042 2.90699H26.2267L30.7181 10.4128ZM27.3647 10.4497L22.8498 2.90699H12.9472L17.5158 10.4497H27.3647ZM14.1355 10.4497L9.71795 3.15204C8.10332 3.54143 6.65654 4.37727 5.51859 5.51859C4.20943 6.82774 3.30309 8.54307 3.0077 10.4497H14.1355ZM38.093 13.3567H2.90699V29.456C2.90699 31.8628 3.87711 34.0548 5.44474 35.6593L5.51859 35.7298C7.12985 37.3411 9.35541 38.3448 11.7958 38.3448H29.2042C31.6479 38.3448 33.8701 37.3444 35.4781 35.7365L35.4848 35.7298C37.0927 34.1219 38.093 31.8997 38.093 29.456V13.3567ZM17.1029 18.4456L26.1092 24.3033C26.2536 24.3973 26.3845 24.5181 26.4885 24.6658C26.8981 25.26 26.747 26.0757 26.1529 26.4852L17.1835 31.7789C16.9586 31.9635 16.6699 32.0743 16.351 32.0743C15.6259 32.0743 15.0385 31.4868 15.0385 30.7618V19.5198H15.0452C15.0452 19.2613 15.1224 18.9995 15.2802 18.7712C15.6964 18.1771 16.5121 18.0328 17.1029 18.4456Z" fill="#FF0709"/>
<path d="M4.13106 37.0292L4.11472 37.0108L4.09749 36.9932C2.18351 35.0423 1 32.3765 1 29.4526V11.7958C1 8.82773 2.21138 6.13128 4.17133 4.17133C6.13128 2.21138 8.82773 1 11.7958 1H29.2042C32.1646 1 34.8616 2.21407 36.8225 4.17188C38.7858 6.13205 40 8.83172 40 11.7958V29.456C40 32.4129 38.786 35.1099 36.8281 37.0709L36.8225 37.0765C34.8584 39.0375 32.1615 40.2484 29.2076 40.2484H11.7958C8.84196 40.2484 6.15027 39.0425 4.19142 37.0971L4.13106 37.0292ZM29.86 10.9263L29.8671 10.9381L29.8745 10.9497L29.8979 10.9866L30.1927 11.4497H30.7416H37.9923H39.1571L38.9808 10.2983C38.655 8.17142 37.6412 6.26785 36.1894 4.81238L36.1885 4.81148C34.3991 3.0221 31.9262 1.90699 29.2042 1.90699H26.2267H24.463L25.3686 3.42047L29.86 10.9263ZM27.3647 11.4497H29.1287L28.2227 9.93613L23.7078 2.3934L23.4166 1.90699H22.8498H12.9472H11.1724L12.0919 3.42507L16.6605 10.9678L16.9524 11.4497H17.5158H27.3647ZM14.1355 11.4497H15.9098L14.991 9.93188L10.5734 2.63419L10.1946 2.00841L9.4835 2.17991C7.68418 2.61384 6.07516 3.54431 4.8111 4.81186C3.35735 6.26576 2.3485 8.17297 2.01949 10.2966L1.84084 11.4497H3.0077H14.1355ZM39.093 13.3567V12.3567H38.093H2.90699H1.90699V13.3567V29.456C1.90699 32.1367 2.98835 34.5761 4.72945 36.3582L4.74164 36.3706L4.75426 36.3827L4.81997 36.4454C6.60814 38.2293 9.08071 39.3448 11.7958 39.3448H29.2042C31.9259 39.3448 34.3989 38.2299 36.1852 36.4436L36.1919 36.4369C37.9781 34.6507 39.093 32.1777 39.093 29.456V13.3567ZM16.5301 19.2653L16.5437 19.2748L16.5577 19.2839L25.5635 25.1413C25.6097 25.1713 25.6439 25.2045 25.6681 25.2376C25.7556 25.3692 25.7275 25.5485 25.6038 25.648L16.6752 30.9177L16.6087 30.9569L16.549 31.0059C16.4986 31.0473 16.433 31.0743 16.351 31.0743C16.1782 31.0743 16.0385 30.9345 16.0385 30.7618V20.5198H16.0452V19.5198C16.0452 19.4614 16.0622 19.3995 16.1012 19.3421C16.2029 19.2002 16.3947 19.1707 16.5301 19.2653Z" stroke="#FF0000" stroke-opacity="0.46" stroke-width="2"/>
</svg>
