<svg width="40" height="40" viewBox="0 0 40 40" fill="none" xmlns="http://www.w3.org/2000/svg">
<rect x="0.686768" y="3.05176e-05" width="38.459" height="38.459" rx="19.2295" fill="white"/>
<path d="M11.279 0H27.9247C31.0221 0 33.8402 1.27105 35.8848 3.31245C37.9327 5.35705 39.2037 8.1784 39.2037 11.279V28.1654C39.2037 31.2596 37.9327 34.0778 35.8913 36.1224L35.8848 36.1288C33.837 38.1734 31.0189 39.4412 27.9279 39.4412H11.279C8.1784 39.4412 5.35705 38.1702 3.31245 36.1288L3.23541 36.0421C1.23896 34.0071 0 31.2211 0 28.1622V11.279C0 8.1752 1.26785 5.35705 3.31245 3.31245C5.35705 1.26785 8.1752 0 11.279 0ZM29.3723 9.9566L29.3948 9.99191H36.3278C36.0485 8.16878 35.1787 6.53181 33.9269 5.2768C32.3862 3.73613 30.2614 2.77963 27.9247 2.77963H25.0777L29.3723 9.9566ZM26.1658 9.99191L21.8487 2.77963H12.3799L16.7484 9.99191H26.1658ZM13.5162 9.99191L9.29218 3.01394C7.7483 3.38627 6.3649 4.18549 5.2768 5.2768C4.02501 6.5286 3.15838 8.16878 2.87592 9.99191H13.5162ZM36.4241 12.7715H2.77963V28.1654C2.77963 30.4668 3.70724 32.5628 5.20619 34.097L5.2768 34.1644C6.81748 35.7051 8.94553 36.6648 11.279 36.6648H27.9247C30.2614 36.6648 32.3862 35.7083 33.9237 34.1708L33.9301 34.1644C35.4676 32.627 36.4241 30.5021 36.4241 28.1654V12.7715ZM16.3536 17.6375L24.9653 23.2385C25.1033 23.3284 25.2285 23.4439 25.328 23.5851C25.7196 24.1533 25.5752 24.9332 25.007 25.3248L16.4306 30.3866C16.2156 30.5631 15.9395 30.669 15.6346 30.669C14.9413 30.669 14.3796 30.1073 14.3796 29.414V18.6646H14.386C14.386 18.4175 14.4599 18.1671 14.6107 17.9488C15.0087 17.3807 15.7887 17.2427 16.3536 17.6375Z" fill="#FF0709"/>
<path d="M3.96647 35.3594L3.98281 35.3777L4.03962 35.4417C5.90479 37.2936 8.46722 38.4412 11.279 38.4412H27.9279C30.7399 38.4412 33.3075 37.2887 35.1777 35.4217L3.96647 35.3594ZM3.96647 35.3594L3.94924 35.3418M3.96647 35.3594L3.94924 35.3418M3.94924 35.3418C2.12674 33.4841 1 30.946 1 28.1622V11.279C1 8.45315 2.15329 5.88582 4.01955 4.01955C5.88582 2.15329 8.45315 1 11.279 1H27.9247M3.94924 35.3418L27.9247 1M27.9247 1C30.7432 1 33.3111 2.15583 35.1783 4.02011M27.9247 1L35.1783 4.02011M35.1783 4.02011C37.0477 5.88659 38.2037 8.45699 38.2037 11.279M35.1783 4.02011L38.2037 11.279M38.2037 11.279V28.1654M38.2037 11.279V28.1654M38.2037 28.1654C38.2037 30.9803 37.0482 33.548 35.1842 35.4153L38.2037 28.1654ZM35.1836 35.4158L35.1783 35.4211L35.1836 35.4158ZM28.5142 10.4701L28.5212 10.4819L28.5286 10.4935L28.5511 10.5288L28.8458 10.9919H29.3948H36.3278H37.4926L37.3163 9.8405C37.0033 7.79713 36.0293 5.96857 34.6349 4.5706L34.634 4.5697C32.9152 2.85092 30.5396 1.77963 27.9247 1.77963H25.0777H23.3139L24.2196 3.29311L28.5142 10.4701ZM26.1658 10.9919H27.9298L27.0238 9.47831L22.7067 2.26603L22.4156 1.77963H21.8487H12.3799H10.6051L11.5246 3.2977L15.8931 10.51L16.185 10.9919H16.7484H26.1658ZM13.5162 10.9919H15.2905L14.3717 9.47406L10.1477 2.49609L9.76885 1.87032L9.05774 2.04181C7.32898 2.45873 5.78321 3.35271 4.56896 4.57044C3.17276 5.96694 2.20376 7.79886 1.88771 9.8388L1.70906 10.9919H2.87592H13.5162ZM37.4241 12.7715V11.7715H36.4241H2.77963H1.77963V12.7715V28.1654C1.77963 30.7407 2.81849 33.084 4.4909 34.7958L4.5031 34.8083L4.51573 34.8204L4.57818 34.88C6.29576 36.5933 8.67083 37.6648 11.279 37.6648H27.9247C30.5394 37.6648 32.915 36.5937 34.6308 34.8779L34.6372 34.8715C36.353 33.1558 37.4241 30.7801 37.4241 28.1654V12.7715ZM15.7808 18.4572L15.7944 18.4667L15.8084 18.4758L24.4196 24.0765C24.4593 24.1023 24.4879 24.1302 24.5075 24.1569C24.5774 24.2628 24.5554 24.4071 24.457 24.4883L15.9224 29.5254L15.8558 29.5646L15.7961 29.6136C15.7557 29.6469 15.7027 29.669 15.6346 29.669C15.4936 29.669 15.3796 29.555 15.3796 29.414V19.6646H15.386V18.6646C15.386 18.6178 15.3996 18.5675 15.4313 18.5204C15.5146 18.404 15.671 18.3805 15.7808 18.4572Z" stroke="#FF0000" stroke-opacity="0.46" stroke-width="2"/>
</svg>
